<?xml version="1.0" encoding="UTF-8"?>
<svg id="Capa_1" xmlns="http://www.w3.org/2000/svg" version="1.1" viewBox="0 0 1920 1080">
  <!-- Generator: Adobe Illustrator 29.3.1, SVG Export Plug-In . SVG Version: 2.1.0 Build 151)  -->
  <defs>
    <style>
      .st0 {
        fill: #4c0f2e;
      }
    </style>
  </defs>
  <path class="st0" d="M498.72,494.82h-9.81c-2.02,0-3.64,1.63-3.69,3.65-1.35,63.32-37.71,119.08-97.43,137.6l12.59-9.77s.04-.03.06-.05c26.98-24.97,39.98-72.76,41.05-109.03.06-2.08-1.64-3.79-3.72-3.79h-8.65c-1.64,0-3.7,1.6-3.7,8.87,0,34.39-5.61,74.07-31.34,97.87-6.24,5.77-12.75,10.48-19.27,14.03-.7.38-1.42-.53-.88-1.12,4.09-4.53,7.49-11.17,9.42-15.71,21.52-50.64,6.55-143.16-36.79-186.5h0c-1.49-1.49-3.93-1.44-5.36.12h0c-25.3,27.64-36.21,55.26-41.79,77.85-.58,2.34,1.19,4.6,3.6,4.6h8.08c1.73,0,3.2-1.2,3.61-2.89,5.23-21.21,19.08-39.63,31.49-42.17.29-.06,3.43.06,5.28,1,13.74,6.98,39.52,87.62,23.34,130.43-3.81,10.09-14.2,28.79-27.27,33.75-2.89,1.1-5.23,1.81-8.5,1.81-4.8.07-7.32-.87-10.25-2.18-18.51-8.3-20.39-23.59-29.64-48.01-15.03-39.69-39.13-86.29-107.95-90.17-2.11-.12-3.88,1.6-3.88,3.71v11.18c0,1.99,1.57,3.6,3.55,3.7,63.9,3.25,82.64,36.33,94.58,76.74,5.57,18.86,12.48,37.14,24.21,44.67.7.45.21,1.5-.59,1.28-34.23-9.33-94.82-49.26-105.49-101.33-.36-1.74-2.04-3.18-3.82-3.18h-7.8c-2.42,0-4.16,2.28-3.59,4.63,16.63,68.52,83.06,113.79,154.61,113.79.49,0,.99,0,1.48,0l1.62-.02c1.99.04,2.47.14,4.72.03.97.04,2.35-.06,3.35-.06,11.48,0,24.84-2.76,40.23-8.24,22.34-7.51,43-19.97,60.54-36.87,29.57-28.5,46.51-66.75,47.53-106.42.05-2.07-1.65-3.77-3.72-3.77Z"/>
  <g>
    <path class="st0" d="M1313.31,533.9l1.55,5.78h-12.27c-.74,0-1.38-.51-1.56-1.22l-1.54-7.8c-.19.28-.44.61-.78.99-.33.38-1.17,1.08-2.54,2.12-1.36,1.04-2.89,1.95-4.58,2.75-1.69.8-3.97,1.53-6.84,2.18-2.87.66-5.99.99-9.38.99-2.35,0-4.77-.33-7.26-.99-2.49-.66-5.12-1.74-7.9-3.24-2.77-1.5-5.03-3.88-6.77-7.12-1.74-3.24-2.61-7.17-2.61-11.77,0-6.58,2.66-10.67,7.97-15.37,5.31-4.7,12.05-7.05,20.23-7.05h19.74v-3.1c0-5.36-1.48-9.14-4.44-11.35-2.96-2.21-7.26-3.31-12.9-3.31-2.82,0-5.6.61-8.32,1.83-2.72,1.22-4.74,2.39-6.06,3.52,0,0,0,0-.01.01l-1.83,1.83-9.02-7.47c.19-.28.47-.63.85-1.06.37-.42,1.29-1.2,2.75-2.33,1.46-1.13,3.08-2.12,4.87-2.96,1.78-.85,4.25-1.62,7.4-2.33,3.15-.71,6.55-1.06,10.22-1.06,6.77,0,12.08.7,15.93,2.12,5.55,2.26,9.07,5.19,10.57,8.81,1.5,3.62,2.26,9,2.26,16.14v22.7c0,5.64.75,12.6,2.26,17.77ZM1298.78,513.82v-9.25s-20.02,0-20.02,0c-4.61,0-8.44,1.43-11.49,4.3-3.06,2.87-4.58,4.91-4.58,9.24,0,3.66,1.48,6.68,4.44,9.02,2.96,2.35,6.65,3.52,11.07,3.52,2.35,0,4.68-.47,6.98-1.41,2.3-.94,4.23-2.09,5.78-3.46,1.55-1.36,2.94-2.73,4.16-4.09,1.22-1.36,2.11-2.51,2.68-3.45h0c.65-1.38.99-2.9.99-4.43Z"/>
    <path class="st0" d="M605.36,440.97c15.5,0,27.12,4.61,34.88,13.84,7.75,9.23,11.62,21.16,11.62,35.8v.29c0,9.51-1.57,17.93-4.71,25.25-3.14,7.32-8.27,13.27-15.4,17.83-7.13,4.56-15.93,6.85-26.39,6.85h-32.09v-81.16c0-10.32,8.37-18.69,18.69-18.69h13.41ZM637.74,491.04v-.57c0-24.06-10.8-36.09-32.38-36.09h0c-10.32,0-18.69,8.37-18.69,18.69v54.35h18.69c21.58,0,32.38-12.12,32.38-36.37Z"/>
    <path class="st0" d="M670.69,480.77c.19-.38.5-.9.93-1.57.43-.66,1.47-1.85,3.14-3.57,1.66-1.71,3.47-3.23,5.42-4.56,1.95-1.33,4.61-2.52,7.99-3.56,3.37-1.05,6.97-1.57,10.77-1.57l-5.56,13.12c-2.38,0-4.8.45-7.27,1.35-2.47.91-4.59,1.97-6.35,3.21-1.76,1.24-3.35,2.5-4.78,3.78-1.43,1.28-2.47,2.35-3.14,3.21l-1.14,1.43v48.07h-12.41v-72.32l12.41,7.13v5.85Z"/>
    <path class="st0" d="M775.4,540.11h-8.57c-1.49,0-2.71-1.21-2.71-2.71v-.46c0-5.97,4.84-10.81,10.81-10.81h.46c1.49,0,2.71,1.21,2.71,2.71v8.57c0,1.49-1.21,2.71-2.71,2.71Z"/>
    <path class="st0" d="M841.01,440.97h12.27v76.46c0,7.89-2.81,11.6-8.42,16.06-5.61,4.47-13.03,6.7-22.25,6.7v-12.27c12.27,0,18.4-4.42,18.4-13.27v-73.69Z"/>
    <path class="st0" d="M894.68,527.56c2.86,0,5.74-.55,8.29-1.83,4.34-2.17,7.56-5.32,9.66-9.46.03-.07.12-.09.18-.05l9.67,7.12c.57.42.6.67.51.86-3.21,6.44-6.51,8.37-11.72,11.48-4.95,2.95-10.41,4.42-16.41,4.42h-1.71c-8.94,0-17.05-1.57-23.33-7.85-6.27-6.28-9.41-13.88-9.41-22.82v-11.27c0-8.94,3.14-16.55,9.41-22.82,6.28-6.28,13.88-9.41,22.83-9.41h1.71c9.13,0,16.78,3.47,22.96,10.41,6.18,6.94,9.27,16.07,9.27,27.39l-53.33,8.68c.52,5.8,3.56,7.25,7.19,10.37,3.71,3.19,8.04,4.78,12.98,4.78h1.24ZM894.07,479.06h-1.14c-5.14,0-9.8,2.07-13.98,6.2-4.19,4.14-6.27,9.44-6.27,15.91l40.07-6.13s0,0,0,0c-.95-4.65-3.12-8.48-6.49-11.47-3.38-3-7.44-4.49-12.2-4.49Z"/>
    <path class="st0" d="M965.25,465.93c20.06,0,30.1,10.27,30.1,30.81v43.36h-12.41v-42.51c0-5.9-1.5-10.89-4.5-14.98-2.99-4.09-7.15-6.13-12.48-6.13-9.28,0-16.33,5.07-21.11,15.2v48.42s-12.41,0-12.41,0v-72.32l12.41,7.13v1c5.61-6.65,12.41-9.98,20.4-9.98Z"/>
    <path class="st0" d="M1036.57,465.93c20.06,0,30.1,10.27,30.1,30.81v43.36h-12.41v-42.51c0-5.9-1.5-10.89-4.5-14.98-2.99-4.09-7.15-6.13-12.48-6.13-9.28,0-16.33,5.07-21.11,15.2v48.42s-12.41,0-12.41,0v-72.32l12.41,7.13v1c5.61-6.65,12.41-9.98,20.4-9.98Z"/>
    <path class="st0" d="M1230.39,487.85c10.3,4.93,15.46,12.77,15.46,23.53,0,4.93-1.42,9.71-4.24,14.36-2.92,4.84-6.98,8.44-12.18,10.81-5.2,2.37-10.86,3.56-16.96,3.56-8.3,0-15.14-1.28-20.52-3.83-5.65-2.55-10.01-6.38-13.06-11.49-2.44-4.07-3.96-8.52-4.57-13.34-.26-2.03,1.17-3.9,3.21-4.1l4.36-.43c1.8-.18,3.49,1.02,3.83,2.79.66,3.43,1.74,6.31,3.22,8.65,2.28,3.47,5.54,6.07,9.78,7.8,4.24,1.73,8.64,2.6,13.2,2.6,9.31,0,15.92-2.69,19.84-8.07,1.64-2.55,2.46-5.29,2.46-8.21,0-3.47-.89-6.25-2.67-8.35-1.78-2.1-4.4-3.88-7.87-5.34-1.01-.45-6.98-2.1-17.92-4.93-4.38-1.09-8.05-2.19-11.01-3.28-2.97-1.1-6.07-2.64-9.3-4.65-3.24-2.01-5.7-4.58-7.39-7.73-1.69-3.15-2.53-6.86-2.53-11.15,0-4.83,1.76-7.89,4.41-12.18,5.2-8.57,14.91-12.86,29.14-12.86,9.48,0,17.56,2.51,24.22,7.52,5.73,4.32,8.66,8.76,9.66,16.33.27,2.04-1.22,3.91-3.26,4.08l-4.5.38c-1.76.15-3.4-1.01-3.76-2.73-2.22-10.58-9.33-14.36-22.21-14.36-7.94,0-13.5,1.42-16.69,4.24-3.37,2.83-5.5,4.7-5.5,8.62,0,3.38,1.18,6.25,3.56,8.62,2.37,2.28,8.39,4.56,18.06,6.84,11.4,2.74,18.65,4.83,21.75,6.29Z"/>
    <path class="st0" d="M1334.7,480.77c.19-.38.5-.9.93-1.57.43-.66,1.47-1.85,3.14-3.57,1.66-1.71,3.47-3.23,5.42-4.56,1.95-1.33,4.61-2.52,7.99-3.56,3.37-1.05,6.97-1.57,10.77-1.57l-5.56,13.1s-.02.02-.03.02c-2.37,0-4.79.46-7.25,1.35-2.47.91-4.59,1.97-6.35,3.21-1.76,1.24-3.35,2.5-4.78,3.78-1.43,1.28-2.47,2.35-3.14,3.21l-1.14,1.43v48.07h-12.41v-72.32l12.41,7.13v5.85Z"/>
    <path class="st0" d="M1438.54,465.93c9.23,0,15.78,2.71,19.68,8.13,3.9,5.42,5.85,12.98,5.85,22.68v43.36h-12.27v-44.22c0-5.8-1.19-10.65-3.57-14.55-2.38-3.9-5.61-5.85-9.7-5.85-3.23,0-6.09.76-8.56,2.28-2.47,1.52-4.33,3.38-5.56,5.56-1.24,2.19-2.14,4.28-2.71,6.28-.57,2-.86,3.76-.86,5.28v45.22h-12.27v-44.22c0-5.8-1.19-10.65-3.56-14.55-2.38-3.9-5.66-5.85-9.84-5.85-4.76,0-8.87,1.97-12.34,5.92-3.48,3.95-5.21,8.77-5.21,14.48v44.22h-12.41v-72.32l12.41,7.13v-.57c4.85-5.61,10.7-8.42,17.55-8.42,10.99,0,18.44,4.15,22.35,12.46.02.04.08.05.1,0,5.32-8.31,12.29-12.46,20.91-12.46Z"/>
    <path class="st0" d="M1476.01,455.28c-1.79,0-3.23-1.45-3.23-3.23v-.86c0-5.07,4.11-9.18,9.18-9.18h0c1.79,0,3.23,1.45,3.23,3.23v10.03h-9.18ZM1472.78,540.11v-72.32l12.41,7.13v65.19h-12.41Z"/>
    <path class="st0" d="M1528.46,527.56c.59,0,1.2-.09,1.75-.27,6.34-2.1,10.85-5.81,13.51-11.14l10.27,7.56c-2.85,5.04-6.76,9.04-11.7,11.98-4.95,2.95-10.41,4.42-16.41,4.42h-1.71c-8.94,0-16.55-3.14-22.83-9.41-6.27-6.28-9.47-12.31-9.47-21.26v-11.27c0-8.94,3.14-16.55,9.41-22.82,6.28-6.28,13.88-9.41,22.83-9.41h1.71c9.13,0,16.78,3.47,22.96,10.41,6.18,6.94,9.27,16.07,9.27,27.39l-53.1,8.64c1.04,4.1,3.21,7.56,6.52,10.41,3.71,3.19,8.04,4.78,12.98,4.78h3.99ZM1525.55,479.06h-1.14c-5.14,0-9.8,2.07-13.98,6.2-4.19,4.14-6.27,9.44-6.27,15.91l40.08-6.13c-.95-4.66-3.12-8.49-6.49-11.48-3.38-3-7.44-4.49-12.2-4.49Z"/>
    <path class="st0" d="M1596.73,465.93c20.06,0,30.1,10.27,30.1,30.81v43.36h-12.41v-42.51c0-5.9-1.5-10.89-4.5-14.98-2.99-4.09-7.15-6.13-12.48-6.13-6.71,0-12.25,2.65-16.61,7.94-3.03,3.67-4.5,8.41-4.5,13.18v42.51s-12.41,0-12.41,0v-72.32l12.41,7.13v1c5.61-6.65,12.41-9.98,20.4-9.98Z"/>
    <path class="st0" d="M1653.06,516.31c0,6.77,3.71,10.96,11.14,12.56,0,0,0,0,0,0l-3.53,11.43c-6.21-1.51-11.08-4.3-14.61-8.4-3.53-4.09-5.29-9.2-5.29-15.31l-.03-37.74s0,0,0,0h-11.85v-9.38c0-.51.41-.93.93-.93h1.92c2.65,0,5.35-.9,7.08-2.91,1.28-1.49,1.93-3.26,1.93-5.28l.21-19.01,12.27,7.05-.2,20.15h14.83l-3.95,10.3h-10.87l.03,37.46Z"/>
    <path class="st0" d="M1700.43,465.93c8.94,0,16.55,3.16,22.82,9.49,6.28,6.33,9.41,13.96,9.41,22.89v9.56c0,8.94-3.14,16.55-9.41,22.82-6.27,6.28-13.88,9.41-22.82,9.41h-1.71c-8.94,0-16.55-3.14-22.83-9.41-6.27-6.28-9.41-13.88-9.41-22.82v-9.56c0-8.94,3.14-16.57,9.41-22.89,6.28-6.32,13.88-9.49,22.83-9.49h1.71ZM1720.4,507.3v-8.13c0-5.61-1.97-10.36-5.92-14.26-3.95-3.9-8.72-5.85-14.33-5.85h-1.14c-5.52,0-10.25,1.97-14.19,5.92-3.95,3.95-5.92,8.68-5.92,14.19v8.13c0,5.61,1.95,10.39,5.85,14.34,3.9,3.95,8.65,5.92,14.27,5.92h1.14c5.61,0,10.39-1.97,14.33-5.92,3.95-3.94,5.92-8.72,5.92-14.34Z"/>
    <path class="st0" d="M758.12,533.9l1.55,5.78h-12.27c-.74,0-1.38-.51-1.56-1.22l-1.54-7.8c-.19.28-.44.61-.78.99-.33.38-1.17,1.08-2.54,2.12-1.36,1.04-2.89,1.95-4.58,2.75-1.69.8-3.97,1.53-6.84,2.18-2.87.66-5.99.99-9.38.99-2.35,0-4.77-.33-7.26-.99s-5.12-1.74-7.9-3.24c-2.77-1.5-5.03-3.88-6.77-7.12-1.74-3.24-2.61-7.17-2.61-11.77,0-6.58,2.66-10.67,7.97-15.37,5.31-4.7,12.05-7.05,20.23-7.05h19.74v-3.1c0-5.36-1.48-9.14-4.44-11.35-2.96-2.21-7.26-3.31-12.9-3.31-2.82,0-5.6.61-8.32,1.83-2.72,1.22-4.74,2.39-6.06,3.52,0,0,0,0-.01.01l-1.83,1.83-9.02-7.47c.19-.28.47-.63.85-1.06.37-.42,1.29-1.2,2.75-2.33,1.46-1.13,3.08-2.12,4.87-2.96,1.78-.85,4.25-1.62,7.4-2.33,3.15-.71,6.55-1.06,10.22-1.06,6.77,0,12.08.7,15.93,2.12,5.55,2.26,9.07,5.19,10.57,8.81s2.26,9,2.26,16.14v22.7c0,5.64.75,12.6,2.26,17.77ZM743.59,513.82v-9.25s-20.02,0-20.02,0c-4.61,0-8.44,1.43-11.49,4.3-3.06,2.87-4.58,4.91-4.58,9.24,0,3.66,1.48,6.68,4.44,9.02,2.96,2.35,6.65,3.52,11.07,3.52,2.35,0,4.68-.47,6.98-1.41,2.3-.94,4.23-2.09,5.78-3.46,1.55-1.36,2.94-2.73,4.16-4.09,1.22-1.36,2.11-2.51,2.68-3.45h0c.65-1.38.99-2.9.99-4.43Z"/>
    <path class="st0" d="M1116.77,465.92h13.32l-28.82,80.95c-2.13,6.08-5.82,11.32-11.08,15.71-5.26,4.39-11.08,6.59-17.45,6.59v-12.31c3.86-.68,7.29-2.32,10.28-4.92,2.99-2.61,5.16-5.79,6.52-9.56l2.46-6.37-25.34-70.09h13.32l18.39,50.83,18.39-50.83Z"/>
  </g>
  <g>
    <path class="st0" d="M587.21,589.61l23.3,46.16c.63,1.16,1.18,2.31,1.64,3.46.46,1.16.89,2.31,1.3,3.46h1.99c.46-1.15.91-2.31,1.34-3.46.43-1.15.94-2.31,1.52-3.46l23.47-46.16h8.75l-3.12,3.03v53.6l3.12,3.03h-10.48l3.12-3.03v-38.62c0-2.02.09-4.03.26-6.02s.32-3.97.43-5.93h-2.34c-.35,1.1-.72,2.18-1.13,3.25-.41,1.07-.87,2.12-1.39,3.16l-23.9,47.19h-1.39l-23.99-46.93c-.58-1.04-1.04-2.14-1.39-3.29-.35-1.15-.66-2.31-.95-3.46h-2.42c.17,1.91.29,3.81.35,5.72.06,1.91.09,3.84.09,5.8v38.97l3.2,3.2h-10.48l3.03-2.94v-53.77l-3.03-2.95h9.09Z"/>
    <path class="st0" d="M676.66,620.27c1.15-2.77,2.78-5.14,4.89-7.1,2.1-1.96,4.6-3.49,7.49-4.59,2.89-1.09,6.06-1.64,9.53-1.64,3.23,0,6,.46,8.31,1.39s4.24,2.14,5.8,3.64c1.33,1.27,2.19,2.5,2.6,3.68s.61,2.32.61,3.42c0,.52-.03,1.07-.09,1.64-.23,1.67-.86,3.09-1.91,4.24-1.04,1.16-2.31,2.14-3.81,2.94-1.5.81-3.18,1.47-5.02,1.99-1.85.52-3.69.97-5.54,1.34-1.85.38-3.62.72-5.33,1.04-1.7.32-3.13.68-4.29,1.08-2.02.75-3.72,1.66-5.11,2.73s-2.19,2.5-2.42,4.29c1.62,2.42,3.75,4.34,6.41,5.76,2.65,1.41,5.95,2.12,9.87,2.12h.43c3.64-.06,6.77-.63,9.39-1.73s4.75-2.4,6.37-3.9l.26,2.17c-1.85,1.5-4.21,2.77-7.1,3.81-2.89,1.04-6.41,1.59-10.57,1.64-3.52,0-6.67-.49-9.44-1.47-2.77-.98-5.14-2.38-7.1-4.2-1.96-1.82-3.46-4-4.5-6.54-1.04-2.54-1.56-5.37-1.56-8.48,0-3.41.61-6.5,1.82-9.27ZM679.26,628.15c0,1.85.19,3.68.56,5.5.38,1.82.88,3.39,1.52,4.72.4-1.33,1.14-2.47,2.21-3.42,1.07-.95,2.34-1.78,3.81-2.47,1.47-.69,3.09-1.27,4.85-1.73,1.76-.46,3.51-.87,5.24-1.21,1.56-.35,3.22-.71,4.98-1.08,1.76-.38,3.38-.92,4.85-1.65,1.47-.72,2.67-1.7,3.59-2.94.92-1.24,1.39-2.84,1.39-4.81v-.35c-.06-1.27-.39-2.53-1-3.77-.61-1.24-1.49-2.34-2.64-3.29-1.16-.95-2.57-1.73-4.24-2.34s-3.61-.91-5.8-.91c-2.83,0-5.43.49-7.79,1.47-2.37.98-4.4,2.35-6.11,4.11-1.71,1.76-3.03,3.84-3.98,6.24-.95,2.4-1.43,5.04-1.43,7.92Z"/>
    <path class="st0" d="M738.92,629.45c0-3.52.59-6.67,1.78-9.44,1.18-2.77,2.83-5.12,4.94-7.06,2.11-1.93,4.62-3.42,7.53-4.46,2.91-1.04,6.08-1.56,9.48-1.56s6.61.65,9.61,1.95c3,1.3,5.43,3.16,7.28,5.59h1.39v-24.85l-3.47-2.68,7.62-1.82v60.96l3.55,3.2h-7.7v-7.79h-1.39c-1.04,1.62-2.27,2.97-3.68,4.07-1.41,1.1-2.97,1.99-4.67,2.68-1.71.69-3.48,1.2-5.33,1.52-1.85.32-3.69.48-5.54.48-3.18,0-6.08-.48-8.7-1.43-2.63-.95-4.88-2.31-6.76-4.07-1.88-1.76-3.33-3.93-4.37-6.5-1.04-2.57-1.56-5.5-1.56-8.79ZM743.34,629.1c0,2.83.42,5.41,1.26,7.75.84,2.34,2.05,4.33,3.64,5.97,1.59,1.65,3.52,2.93,5.8,3.85s4.86,1.38,7.75,1.38c2.14,0,4.33-.33,6.58-1,2.25-.66,4.31-1.63,6.19-2.9,1.87-1.27,3.41-2.84,4.59-4.72,1.18-1.87,1.78-4.03,1.78-6.45v-10.39c0-2.19-.58-4.12-1.73-5.8-1.16-1.67-2.61-3.09-4.37-4.24-1.76-1.15-3.69-2.02-5.8-2.6-2.1-.58-4.08-.86-5.93-.86-3,0-5.72.47-8.14,1.43-2.42.95-4.5,2.31-6.23,4.07-1.73,1.76-3.06,3.87-3.98,6.32-.92,2.45-1.39,5.18-1.39,8.18Z"/>
    <path class="st0" d="M810.11,608.06h7.79v38.1l3.55,3.12h-11.26l3.46-3.12v-34.55l-3.55-3.55ZM812.61,592.82c.69-.69,1.59-1.04,2.68-1.04s1.92.36,2.64,1.08c.72.72,1.08,1.63,1.08,2.73,0,1.04-.36,1.92-1.08,2.64-.72.72-1.6,1.08-2.64,1.08-1.09,0-2.01-.36-2.72-1.08-.72-.72-1.09-1.6-1.09-2.64,0-1.1.38-2.02,1.13-2.77Z"/>
    <path class="st0" d="M844.73,619.23c1.33-2.77,3.15-5.08,5.46-6.93,2.31-1.85,4.92-3.2,7.84-4.07,2.91-.87,5.9-1.3,8.96-1.3h1.13c1.96.06,3.75.25,5.37.56s3.06.69,4.33,1.13c1.27.43,2.4.91,3.38,1.43s1.82.98,2.51,1.39l-3.64,4.07-5.54-5.98c-.93-.35-1.98-.62-3.16-.82s-2.52-.3-4.03-.3c-2.83,0-5.48.49-7.97,1.47-2.48.98-4.63,2.37-6.45,4.16s-3.25,3.94-4.28,6.45c-1.04,2.51-1.56,5.3-1.56,8.36s.51,5.87,1.52,8.27c1.01,2.4,2.39,4.43,4.15,6.11,1.76,1.67,3.81,2.94,6.15,3.81s4.81,1.3,7.4,1.3c1.5,0,3.06-.16,4.67-.48,1.62-.32,3.19-.74,4.72-1.25,1.53-.52,2.97-1.13,4.33-1.82,1.35-.69,2.52-1.41,3.5-2.17l.26,2.17c-2.54,1.67-5.34,3-8.4,3.98-3.06.98-6.18,1.47-9.35,1.47s-6.09-.46-8.92-1.39c-2.83-.92-5.31-2.29-7.45-4.11s-3.84-4.05-5.11-6.71c-1.27-2.65-1.91-5.74-1.91-9.26s.7-6.76,2.08-9.53Z"/>
    <path class="st0" d="M907.26,608.06h7.79v38.1l3.55,3.12h-11.26l3.46-3.12v-34.55l-3.55-3.55ZM909.77,592.82c.69-.69,1.59-1.04,2.68-1.04s1.92.36,2.64,1.08c.72.72,1.08,1.63,1.08,2.73,0,1.04-.36,1.92-1.08,2.64-.72.72-1.6,1.08-2.64,1.08-1.09,0-2.01-.36-2.72-1.08-.72-.72-1.09-1.6-1.09-2.64,0-1.1.38-2.02,1.13-2.77Z"/>
    <path class="st0" d="M947.35,608.06v7.62h1.47c2.19-3.17,4.85-5.41,7.97-6.71,3.11-1.3,6.58-1.95,10.39-1.95,5.6,0,9.83,1.41,12.68,4.24,2.86,2.83,4.28,7.04,4.28,12.64v22.17l3.47,3.2h-11.09l3.47-3.12v-20.87c0-4.96-1.17-8.89-3.51-11.78s-6.07-4.33-11.21-4.33c-2.37,0-4.63.38-6.8,1.13s-4.07,1.83-5.71,3.25c-1.65,1.42-2.96,3.13-3.94,5.15s-1.47,4.27-1.47,6.75v20.61l3.46,3.2h-11.08l3.46-3.12v-34.64l-3.46-3.46h7.62Z"/>
    <path class="st0" d="M1008.57,638.8c0-2.31.54-4.21,1.64-5.72,1.09-1.5,2.48-2.73,4.16-3.68,1.67-.95,3.52-1.66,5.54-2.12,2.02-.46,3.98-.81,5.89-1.04l17.75-2.08c0-2.31-.22-4.43-.65-6.37-.43-1.93-1.18-3.61-2.25-5.02-1.07-1.41-2.51-2.52-4.33-3.33-1.82-.81-4.11-1.21-6.88-1.21-1.5,0-2.93.17-4.29.52-1.35.35-2.72.81-4.11,1.39l-2.77,4.85-3.98-4.5c2.14-.81,4.65-1.6,7.54-2.38,2.88-.78,5.91-1.17,9.09-1.17,2.48,0,4.76.27,6.84.82,2.08.55,3.85,1.42,5.33,2.6,1.47,1.18,2.61,2.73,3.42,4.63s1.21,4.24,1.21,7.01v24.16l3.72,3.12h-7.88v-7.88h-1.64c-.93,1.44-2.05,2.73-3.38,3.85-1.33,1.13-2.77,2.05-4.33,2.77-1.56.72-3.2,1.27-4.94,1.64-1.73.38-3.46.56-5.2.56s-3.42-.19-5.24-.56c-1.82-.37-3.5-1-5.02-1.86-1.53-.87-2.79-2.03-3.77-3.51s-1.47-3.31-1.47-5.5ZM1012.99,638.45c0,1.79.39,3.29,1.17,4.5.78,1.21,1.77,2.21,2.98,2.99,1.21.78,2.58,1.34,4.12,1.69,1.53.35,3.04.52,4.55.52,2.31,0,4.53-.37,6.67-1.13,2.13-.75,4.03-1.82,5.67-3.2,1.64-1.39,2.96-3.09,3.94-5.11.98-2.02,1.47-4.27,1.47-6.75v-6.5l-10.3,1.21c-1.68.23-3.48.48-5.41.74-1.94.26-3.81.65-5.63,1.17s-3.48,1.21-4.98,2.08c-1.5.86-2.6,2.02-3.29,3.46-.4.75-.66,1.5-.78,2.25-.12.75-.17,1.44-.17,2.08Z"/>
    <path class="st0" d="M1155.61,589.61v6.23l-4.68-3.55h-31.78v26.24h21.39l4.33-2.6v6.93l-4.24-2.51h-21.47v26.24h30.82l4.76-3.38v6.06h-43.3l3.38-3.46v-52.82l-3.38-3.38h44.17Z"/>
    <path class="st0" d="M1177.86,644.43l3.12-3.81,4.5,5.37c1.5.75,3.48,1.38,5.93,1.91,2.45.52,4.98.78,7.58.78,1.73,0,3.42-.16,5.06-.47s3.1-.84,4.37-1.56c1.27-.72,2.29-1.67,3.07-2.86s1.17-2.64,1.17-4.37c0-2.25-.81-4.04-2.42-5.37-1.62-1.33-3.64-2.39-6.06-3.2-1.21-.4-2.63-.78-4.25-1.13-1.62-.35-3.27-.74-4.98-1.17-1.71-.43-3.38-.94-5.03-1.52-1.64-.58-3.11-1.3-4.42-2.16-1.3-.87-2.35-1.91-3.16-3.12-.81-1.21-1.21-2.68-1.21-4.42,0-1.33.34-2.61,1.04-3.85.69-1.24,1.7-2.35,3.03-3.33,1.32-.98,2.99-1.78,4.98-2.38s4.31-.91,6.97-.91c1.85,0,3.5.09,4.98.26,1.48.17,2.9.42,4.29.74s2.74.74,4.07,1.26c1.33.52,2.74,1.13,4.24,1.82l-2.42,3.46c-.75-.86-1.66-1.67-2.72-2.42-1.07-.75-2.26-1.4-3.55-1.95-1.3-.55-2.65-.98-4.07-1.3-1.42-.32-2.81-.48-4.2-.48h-.87c-3.35,0-6.18.68-8.48,2.03-2.31,1.36-3.46,3.36-3.46,6.02,0,4.39,3.87,7.36,11.6,8.92,2.36.46,4.74,1.04,7.14,1.73,2.4.69,4.58,1.57,6.54,2.64,1.96,1.07,3.53,2.38,4.72,3.94,1.18,1.56,1.78,3.41,1.78,5.54v.35c-.06,2.48-.7,4.43-1.95,5.84-1.24,1.42-2.77,2.5-4.59,3.25s-3.8,1.23-5.93,1.43c-2.14.2-4.16.3-6.06.3-3.58,0-7.09-.51-10.52-1.52s-6.71-2.44-9.83-4.29Z"/>
    <path class="st0" d="M1238.04,609.96v-2.08h10.13v-13.25l4.5-1.3-.08,14.55h14.89v2.08h-14.89v27.97c0,1.62.03,3.07.08,4.37s.28,2.4.65,3.29c.37.89.96,1.53,1.77,1.91s1.82.56,3.03.56h1.04c.86-.12,1.78-.45,2.72-1,.95-.55,1.66-.99,2.12-1.34l1.39,2.77c-1.1.35-2.4.62-3.9.82-1.5.2-2.83.3-3.98.3-1.96,0-3.57-.2-4.81-.61-1.24-.4-2.2-1.04-2.86-1.91s-1.11-1.98-1.34-3.33c-.23-1.36-.35-3.02-.35-4.98v-28.84h-10.13Z"/>
    <path class="st0" d="M1291.99,620.27c1.16-2.77,2.79-5.14,4.89-7.1,2.11-1.96,4.6-3.49,7.49-4.59,2.88-1.09,6.06-1.64,9.52-1.64,3.23,0,6,.46,8.32,1.39,2.31.92,4.24,2.14,5.8,3.64,1.32,1.27,2.19,2.5,2.6,3.68.4,1.18.61,2.32.61,3.42,0,.52-.03,1.07-.09,1.64-.23,1.67-.86,3.09-1.9,4.24-1.04,1.16-2.31,2.14-3.81,2.94-1.5.81-3.18,1.47-5.02,1.99-1.85.52-3.7.97-5.54,1.34-1.85.38-3.62.72-5.33,1.04-1.7.32-3.13.68-4.28,1.08-2.02.75-3.73,1.66-5.11,2.73-1.38,1.07-2.19,2.5-2.42,4.29,1.62,2.42,3.75,4.34,6.41,5.76s5.95,2.12,9.88,2.12h.43c3.64-.06,6.77-.63,9.4-1.73,2.63-1.1,4.74-2.4,6.36-3.9l.26,2.17c-1.85,1.5-4.21,2.77-7.1,3.81-2.88,1.04-6.41,1.59-10.56,1.64-3.52,0-6.67-.49-9.44-1.47-2.77-.98-5.13-2.38-7.1-4.2-1.96-1.82-3.46-4-4.5-6.54-1.04-2.54-1.56-5.37-1.56-8.48,0-3.41.61-6.5,1.82-9.27ZM1294.59,628.15c0,1.85.19,3.68.56,5.5.37,1.82.88,3.39,1.51,4.72.4-1.33,1.14-2.47,2.21-3.42,1.07-.95,2.34-1.78,3.81-2.47,1.48-.69,3.09-1.27,4.85-1.73s3.51-.87,5.24-1.21c1.56-.35,3.21-.71,4.98-1.08s3.38-.92,4.85-1.65c1.47-.72,2.67-1.7,3.59-2.94.92-1.24,1.38-2.84,1.38-4.81v-.35c-.06-1.27-.39-2.53-1-3.77-.61-1.24-1.48-2.34-2.64-3.29-1.16-.95-2.57-1.73-4.24-2.34s-3.61-.91-5.8-.91c-2.83,0-5.43.49-7.79,1.47-2.37.98-4.4,2.35-6.1,4.11-1.71,1.76-3.03,3.84-3.98,6.24-.95,2.4-1.43,5.04-1.43,7.92ZM1317.8,590.91l-12.64,9.53-1.73-1.21,11.69-10.91,2.69,2.6Z"/>
    <path class="st0" d="M1352,609.96v-2.08h10.13v-13.25l4.5-1.3-.08,14.55h14.89v2.08h-14.89v27.97c0,1.62.03,3.07.08,4.37s.28,2.4.65,3.29c.37.89.96,1.53,1.77,1.91s1.82.56,3.03.56h1.04c.86-.12,1.78-.45,2.72-1,.95-.55,1.66-.99,2.12-1.34l1.39,2.77c-1.1.35-2.4.62-3.9.82-1.5.2-2.83.3-3.98.3-1.96,0-3.57-.2-4.81-.61-1.24-.4-2.2-1.04-2.86-1.91s-1.11-1.98-1.34-3.33c-.23-1.36-.35-3.02-.35-4.98v-28.84h-10.13Z"/>
    <path class="st0" d="M1403.87,608.06h7.79v38.1l3.55,3.12h-11.26l3.46-3.12v-34.55l-3.55-3.55ZM1406.38,592.82c.69-.69,1.59-1.04,2.68-1.04s1.92.36,2.64,1.08c.72.72,1.08,1.63,1.08,2.73,0,1.04-.36,1.92-1.08,2.64-.72.72-1.6,1.08-2.64,1.08-1.09,0-2.01-.36-2.72-1.08-.72-.72-1.09-1.6-1.09-2.64,0-1.1.38-2.02,1.13-2.77Z"/>
    <path class="st0" d="M1438.5,619.23c1.33-2.77,3.15-5.08,5.46-6.93,2.31-1.85,4.92-3.2,7.84-4.07,2.91-.87,5.9-1.3,8.96-1.3h1.13c1.96.06,3.75.25,5.37.56s3.06.69,4.33,1.13c1.27.43,2.4.91,3.38,1.43s1.82.98,2.51,1.39l-3.64,4.07-5.54-5.98c-.93-.35-1.98-.62-3.16-.82s-2.52-.3-4.03-.3c-2.83,0-5.48.49-7.97,1.47-2.48.98-4.63,2.37-6.45,4.16s-3.25,3.94-4.28,6.45-1.56,5.3-1.56,8.36.51,5.87,1.52,8.27c1.01,2.4,2.39,4.43,4.15,6.11,1.76,1.67,3.81,2.94,6.15,3.81s4.81,1.3,7.4,1.3c1.5,0,3.06-.16,4.67-.48,1.62-.32,3.19-.74,4.72-1.25,1.53-.52,2.97-1.13,4.33-1.82,1.35-.69,2.52-1.41,3.5-2.17l.26,2.17c-2.54,1.67-5.34,3-8.4,3.98-3.06.98-6.18,1.47-9.35,1.47s-6.09-.46-8.92-1.39c-2.83-.92-5.31-2.29-7.45-4.11s-3.84-4.05-5.11-6.71c-1.27-2.65-1.91-5.74-1.91-9.26s.7-6.76,2.08-9.53Z"/>
    <path class="st0" d="M1500.86,638.8c0-2.31.54-4.21,1.64-5.72,1.09-1.5,2.48-2.73,4.16-3.68,1.67-.95,3.52-1.66,5.54-2.12,2.02-.46,3.98-.81,5.89-1.04l17.75-2.08c0-2.31-.22-4.43-.65-6.37-.43-1.93-1.18-3.61-2.25-5.02-1.07-1.41-2.51-2.52-4.33-3.33-1.82-.81-4.11-1.21-6.88-1.21-1.5,0-2.93.17-4.29.52-1.35.35-2.72.81-4.11,1.39l-2.77,4.85-3.98-4.5c2.14-.81,4.65-1.6,7.54-2.38,2.88-.78,5.91-1.17,9.09-1.17,2.48,0,4.76.27,6.84.82,2.08.55,3.85,1.42,5.33,2.6,1.47,1.18,2.61,2.73,3.42,4.63s1.21,4.24,1.21,7.01v24.16l3.72,3.12h-7.88v-7.88h-1.64c-.93,1.44-2.05,2.73-3.38,3.85-1.33,1.13-2.77,2.05-4.33,2.77-1.56.72-3.2,1.27-4.94,1.64-1.73.38-3.46.56-5.2.56s-3.42-.19-5.24-.56c-1.82-.37-3.5-1-5.02-1.86-1.53-.87-2.79-2.03-3.77-3.51s-1.47-3.31-1.47-5.5ZM1505.27,638.45c0,1.79.39,3.29,1.17,4.5.78,1.21,1.77,2.21,2.98,2.99s2.58,1.34,4.12,1.69c1.53.35,3.04.52,4.55.52,2.31,0,4.53-.37,6.67-1.13,2.13-.75,4.03-1.82,5.67-3.2s2.96-3.09,3.94-5.11c.98-2.02,1.47-4.27,1.47-6.75v-6.5l-10.3,1.21c-1.68.23-3.48.48-5.41.74-1.94.26-3.81.65-5.63,1.17s-3.48,1.21-4.98,2.08c-1.5.86-2.6,2.02-3.29,3.46-.4.75-.66,1.5-.78,2.25-.12.75-.17,1.44-.17,2.08Z"/>
  </g>
</svg>