<?xml version="1.0" encoding="UTF-8"?>
<svg id="Capa_1" xmlns="http://www.w3.org/2000/svg" version="1.1" viewBox="0 0 1920 1080">
  <!-- Generator: Adobe Illustrator 29.3.1, SVG Export Plug-In . SVG Version: 2.1.0 Build 151)  -->
  <defs>
    <style>
      .st0 {
        fill: #4c0f2e;
      }
    </style>
  </defs>
  <path class="st0" d="M1434.37,400.41h-30.25c-6.24,0-11.24,5.02-11.37,11.26-4.16,195.26-116.28,367.21-300.45,424.32l38.82-30.14c.06-.05.13-.1.18-.16,83.2-77.01,123.29-224.37,126.59-336.22.19-6.41-5.05-11.68-11.47-11.68h-26.66c-5.06,0-11.42,4.93-11.42,27.35,0,106.07-17.29,228.42-96.65,301.8-19.24,17.79-39.32,32.31-59.43,43.26-2.17,1.18-4.38-1.63-2.72-3.47,12.61-13.97,23.1-34.45,29.04-48.44,66.35-156.16,20.2-441.49-113.45-575.14h0c-4.6-4.61-12.12-4.44-16.52.36h0c-78.02,85.24-111.67,170.41-128.87,240.08-1.78,7.22,3.67,14.19,11.12,14.19h24.92c5.34,0,9.86-3.72,11.14-8.9,16.12-65.41,58.83-122.2,97.11-130.05.9-.19,10.57.18,16.29,3.08,42.38,21.52,121.86,270.2,71.97,402.23-11.75,31.1-43.78,88.77-84.09,104.07-8.9,3.38-16.14,5.57-26.22,5.57-14.8.22-22.58-2.68-31.61-6.73-57.08-25.61-62.87-72.75-91.39-148.06-46.34-122.39-120.67-266.11-332.88-278.08-6.51-.37-11.98,4.92-11.98,11.44v34.48c0,6.12,4.85,11.1,10.96,11.41,197.05,10.02,254.86,112.03,291.65,236.65,17.17,58.15,38.49,114.53,74.65,137.74,2.15,1.38.65,4.63-1.81,3.96-105.56-28.79-292.41-151.92-325.31-312.48-1.1-5.38-6.3-9.82-11.8-9.82h-24.05c-7.47,0-12.84,7.03-11.08,14.29,51.28,211.31,256.15,350.91,476.78,350.91,1.51,0,3.04,0,4.56-.02l4.99-.05c6.14.11,7.62.42,14.56.09,3.01.13,7.25-.19,10.34-.19,35.4,0,76.6-8.52,124.06-25.42,68.91-23.16,132.62-61.58,186.69-113.69,91.18-87.88,143.44-205.83,146.56-328.17.16-6.39-5.09-11.63-11.48-11.63Z"/>
</svg>